<svg id="Eye" xmlns="http://www.w3.org/2000/svg" viewBox="0 0 400 400"><defs><style>.cls-1{fill:#fff;}</style></defs><title>Icons_white</title><path class="cls-1" d="M23.24,203c23.42,29.34,93.1,107.62,175.53,107.62S350.86,232.39,374.29,203a17.83,17.83,0,0,0,0-21.95c-23.43-29.34-93.1-107.62-175.52-107.62-82.43-.29-152.11,78-175.53,107.33a17.47,17.47,0,0,0,0,22.24h0Zm175.53-82.43a71.16,71.16,0,1,1-71.17,71.17,71,71,0,0,1,71.17-71.17h0Zm0,0"/><path class="cls-1" d="M234.34,191.78a35.58,35.58,0,1,1-35.57-35.59,35.57,35.57,0,0,1,35.57,35.59h0Zm0,0"/></svg>