<svg id="Eye" xmlns="http://www.w3.org/2000/svg" viewBox="0 0 400 400"><defs><style>.cls-1{fill:#fff;}</style></defs><title>Icons_white</title><path class="cls-1" d="M253.51,190.28a26.19,26.19,0,0,0-26.16,26.16,5.49,5.49,0,1,0,11,0,15.19,15.19,0,1,1,30.37,0,5.49,5.49,0,1,0,11,0,26.19,26.19,0,0,0-26.16-26.16h0Zm0,0"/><path class="cls-1" d="M148.74,201.26a15.2,15.2,0,0,1,15.19,15.19,5.49,5.49,0,1,0,11,0,26.16,26.16,0,1,0-52.33,0,5.49,5.49,0,1,0,11,0,15.2,15.2,0,0,1,15.19-15.19h0Zm0,0"/><path class="cls-1" d="M369.26,229.92a31.47,31.47,0,0,0-28.51-31.29A143.64,143.64,0,0,0,229.86,90.13a10,10,0,0,1,.48-15.22h0a21,21,0,0,0-.1-32.88c-0.06,0-.13-0.08-0.19-0.12a9.93,9.93,0,0,1-3.48-7.57,5.49,5.49,0,0,0-11,0,20.85,20.85,0,0,0,8,16.48L223.8,51a10,10,0,0,1-.3,15.37,20.86,20.86,0,0,0-7.9,16.4,21.11,21.11,0,0,0,.68,5.3q-6-.64-12.21-0.76a10,10,0,0,1,.49-15.22,21,21,0,0,0-.1-32.88l-0.19-.12a9.93,9.93,0,0,1-3.48-7.57,5.49,5.49,0,0,0-11,0,20.87,20.87,0,0,0,8,16.48L198,48.1a10,10,0,0,1-.3,15.37,21,21,0,0,0-6.44,24.1,143.2,143.2,0,0,0-15.68,1.94,10,10,0,0,1,1.1-14.6h0A21,21,0,0,0,176.59,42l-0.2-.13a9.93,9.93,0,0,1-3.48-7.56,5.49,5.49,0,1,0-11,0,20.85,20.85,0,0,0,8,16.48L170.14,51a10,10,0,0,1-.3,15.37h0a21,21,0,0,0-5.7,25.75A143.69,143.69,0,0,0,61.53,198.51a31.42,31.42,0,0,0-.22,62.81C75.48,325.47,132.78,373.6,201.12,373.6S326.86,325.4,341,261.19a31.47,31.47,0,0,0,28.28-31.27h0ZM42,229.92a20.47,20.47,0,0,1,17.47-20.21,143.23,143.23,0,0,0-.15,40.4A20.47,20.47,0,0,1,42,229.92h0ZM201.12,362.63c-72.9,0-132.21-59.31-132.21-132.21S128.22,98.2,201.12,98.2s132.21,59.31,132.21,132.21S274,362.63,201.12,362.63h0ZM343,249.68a143.19,143.19,0,0,0-.15-39.56,20.42,20.42,0,0,1,.15,39.56h0Zm0,0"/><path class="cls-1" d="M259.92,272.66a5.49,5.49,0,0,0-7,3.29,56.12,56.12,0,0,1-105.54,0A5.49,5.49,0,0,0,137,279.68a67.1,67.1,0,0,0,126.18,0,5.49,5.49,0,0,0-3.29-7h0Zm0,0"/></svg>