<svg id="Eye" xmlns="http://www.w3.org/2000/svg" viewBox="0 0 400 400"><defs><style>.cls-1{fill:#fff;}</style></defs><title>Icons_white</title><path class="cls-1" d="M242.66,209.69c8.24,0,14.92-6.32,14.92-14.08s-6.68-14.08-14.92-14.08-14.9,6.31-14.9,14.08,6.66,14.08,14.9,14.08h0Zm-3-19.56a7.24,7.24,0,1,1-7.65,7.22,7.44,7.44,0,0,1,7.65-7.22h0Zm0,0"/><path class="cls-1" d="M116.57,223.47a113.83,113.83,0,0,0,34.79,35.85c16.75,11,35.25,16.84,53.55,17h0.18c18.3-.15,36.81-6,53.55-17a113.86,113.86,0,0,0,34.79-35.85c10.38-.47,16.19-5.3,19.27-9.39,4-5.37,6.1-12.91,6.1-22.41,0-16.43-5.93-27.71-16.82-32.33,1.53-9.34,1.52-20.27-1.17-33.23-1.74-8.37-6.65-15-13.31-20.63-24.77-20.83-72.84-21-75.09-51-0.49-5.51-3.89-8.43-12.15-7.13-48.63,7.63-71.32,31.76-83.65,58-2.8,4.8-5.71,12.5-7.42,20.76-2.7,13-2.7,23.89-1.17,33.23C97.13,164,91.2,175.25,91.2,191.67c0,9.5,2.05,17,6.1,22.41,3.08,4.09,8.89,8.91,19.27,9.39h0Zm-1-53c7.69-1.49,6-14.13,16-20.43,12.74-8,40.62,17.4,73.32,17.4s61.5-26.31,73.63-17.4c6.38,4.68,9,18.42,16,20.43s11.36,8.88,11.36,21.18c0,16.63-7.13,18.88-14.09,18.88-0.42,0-.91,0-1.51-0.09l-4.19-.34-2,3.69c-13,23.73-43.17,49.25-79,49.54-35.86-.29-66.07-25.82-79-49.54l-2-3.69-4.19.34c-0.59,0-1.09.09-1.51,0.09-7,0-14.09-2.25-14.09-18.88,0-12.3,3.67-19.69,11.36-21.18h0Zm0,0"/><path class="cls-1" d="M167.34,209.69c8.24,0,14.9-6.32,14.9-14.08s-6.67-14.08-14.9-14.08-14.92,6.31-14.92,14.08,6.68,14.08,14.92,14.08h0Zm3-19.56a7.24,7.24,0,1,1-7.65,7.22,7.44,7.44,0,0,1,7.65-7.22h0Zm0,0"/><path class="cls-1" d="M266.21,270.16a22.66,22.66,0,0,0-10.72,3.07c-1.24.62-35.15,20.23-42.23,24.47a14.57,14.57,0,0,1-6.95,2.44,14.52,14.52,0,0,1-7-2.44c-7.08-4.24-41-23.85-42.24-24.47a22.62,22.62,0,0,0-10.72-3.07C121,270.26,91,292.42,91,320.06v45.5H321.62v-45.5c0-27.64-30-49.81-55.41-49.9h0Zm-68.42,80.73H105.68V320.06c0-17.65,20.42-33.45,37.83-35.08-1.64,11.43-5.29,27.5-5.54,28.6v0.06h0a6.27,6.27,0,0,0-.12,1.18,6,6,0,0,0,5.93,6,2.36,2.36,0,0,0,.57,0c11.32-1.34,35-7.83,48.11-10.18l5.35,3.1v37.1Zm109.15,0H214.83v-37.1l5.35-3.1c13.08,2.35,36.78,8.83,48.11,10.18a2.39,2.39,0,0,0,.57,0,6,6,0,0,0,5.82-7.22h0v0a0.22,0.22,0,0,1,0,0c-0.25-1.1-3.91-17.17-5.55-28.6,17.41,1.63,37.83,17.43,37.83,35.08v30.83Zm0,0"/><path class="cls-1" d="M293.61,335.89a4.21,4.21,0,0,1-4.17,4.26h-42a4.21,4.21,0,0,1-4.16-4.26v-2.13a4.21,4.21,0,0,1,4.16-4.26h42a4.21,4.21,0,0,1,4.17,4.26v2.13Zm0,0"/></svg>