<svg id="Eye" xmlns="http://www.w3.org/2000/svg" viewBox="0 0 400 400"><defs><style>.cls-1{fill:#fff;}</style></defs><title>Icons_white</title><path class="cls-1" d="M256.18,193.07a26.19,26.19,0,0,0,26.19-26.19V67.38a26.2,26.2,0,0,0-26.19-26.19h-99.5a26.19,26.19,0,0,0-26.19,26.19v99.5a26.17,26.17,0,0,0,26.19,26.19h99.5Zm-110-26.19V67.38a10.5,10.5,0,0,1,10.49-10.49h99.5a10.5,10.5,0,0,1,10.49,10.49v99.5a10.5,10.5,0,0,1-10.49,10.49h-99.5a10.5,10.5,0,0,1-10.49-10.49h0Zm0,0"/><path class="cls-1" d="M46.69,229.74v99.5a26.2,26.2,0,0,0,26.19,26.19h99.5a26.19,26.19,0,0,0,26.19-26.19v-99.5a26.17,26.17,0,0,0-26.19-26.19H72.87a26.17,26.17,0,0,0-26.19,26.19h0Zm136.18,0v99.5a10.5,10.5,0,0,1-10.49,10.49H72.87a10.5,10.5,0,0,1-10.49-10.49v-99.5a10.5,10.5,0,0,1,10.49-10.49h99.5a10.5,10.5,0,0,1,10.49,10.49h0Zm0,0"/><path class="cls-1" d="M363.53,229.74a26.17,26.17,0,0,0-26.19-26.19h-99.5a26.19,26.19,0,0,0-26.19,26.19v99.5a26.2,26.2,0,0,0,26.19,26.19h99.5a26.19,26.19,0,0,0,26.19-26.19v-99.5Zm-15.7,99.5a10.5,10.5,0,0,1-10.49,10.49h-99.5a10.47,10.47,0,0,1-10.45-10.49v-99.5a10.47,10.47,0,0,1,10.45-10.49h99.5a10.5,10.5,0,0,1,10.49,10.49v99.5Zm0,0"/><path class="cls-1" d="M163.94,163.35a7.75,7.75,0,0,0,3.48.84,7.9,7.9,0,0,0,7.06-4.37l7.1-14.32h49.66l7.14,14.32a7.85,7.85,0,0,0,14.07-7l-39-78.41a1.43,1.43,0,0,1-.1-0.18,6.14,6.14,0,0,0-.43-0.69c-0.16-.2-0.28-0.41-0.44-0.59a5.6,5.6,0,0,0-.51-0.54,3,3,0,0,0-.59-0.56,3.28,3.28,0,0,0-.51-0.39c-0.26-.18-0.51-0.33-0.77-0.48a0.82,0.82,0,0,1-.18-0.1,2.33,2.33,0,0,0-.44-0.15,4.63,4.63,0,0,0-.82-0.31,7.09,7.09,0,0,0-.71-0.18c-0.26,0-.51-0.1-0.77-0.12a7.5,7.5,0,0,0-.77,0,7.18,7.18,0,0,0-.74,0c-0.26,0-.51.08-0.77,0.12l-0.71.16a6.51,6.51,0,0,0-.82.33,1.83,1.83,0,0,0-.44.15c-0.08,0-.1.08-0.18,0.1-0.26.15-.51,0.33-0.77,0.48s-0.36.23-.54,0.36-0.41.38-.62,0.58-0.33.33-.48,0.52-0.28.41-.41,0.61-0.31.46-.43,0.69a1.38,1.38,0,0,1-.13.18l-39,78.41a7.81,7.81,0,0,0,3.53,10.51h0Zm42.47-67.76,17,34.19h-34Zm0,0"/><path class="cls-1" d="M103.86,328.53h19.9a30.7,30.7,0,0,0,14.4-57.82,25.23,25.23,0,0,0-20.33-40.28h-14a13.06,13.06,0,0,0-12.43,9.16,7.67,7.67,0,0,0-.67,3.17V315.9a7,7,0,0,0,.24,1.81,13.07,13.07,0,0,0,12.86,10.82h0Zm34.91-30.72a15,15,0,0,1-15,15H106.48v-30h17.28a15,15,0,0,1,15,15h0Zm-11.35-42.07a9.61,9.61,0,0,1-9.59,9.62H106.48v-19.2h11.35a9.59,9.59,0,0,1,9.59,9.58h0Zm0,0"/><path class="cls-1" d="M315.07,302.16a31.13,31.13,0,1,1-.69-46,7.85,7.85,0,1,0,10.43-11.74,46.86,46.86,0,1,0,1.05,69.15,7.86,7.86,0,0,0-10.8-11.43h0Zm0,0"/></svg>