<svg id="Eye" xmlns="http://www.w3.org/2000/svg" viewBox="0 0 400 400"><defs><style>.cls-1{fill:#fff;}</style></defs><title>outfit</title><path class="cls-1" d="M306.35,131.45l20.83-31.59a14.26,14.26,0,0,0-2-17.84c-37.33-35.23-71.82-39-84.94-39a51.39,51.39,0,0,0-6.44.35l-6,.89-0.61,6c-2.88,27.85-23.4,29.26-27.55,29.26h-0.71c-4.07,0-24.59-1.41-27.47-29.26l-0.63-6-6-.89a50.75,50.75,0,0,0-6.42-.35c-13.11,0-47.63,3.79-85,39a14.3,14.3,0,0,0-2,17.84L92.3,131.45a13.55,13.55,0,0,0,13.24,5.81c-7.6,34.07-20.95,115.8-.35,206.11a14.52,14.52,0,0,0,13.92,11.09h58.22a18.28,18.28,0,0,0,14.5-8l7.48-11.8,7.51,11.8a18,18,0,0,0,14.5,8h58.22a14.57,14.57,0,0,0,13.92-11.09c20.6-90.31,7.25-172-.36-206.11a13.1,13.1,0,0,0,2,.16,13.34,13.34,0,0,0,11.19-6h0Zm-37.76-24.67,5.46,18.3c0.3,1,29.75,101.82,4.52,213.85H221.44a3.63,3.63,0,0,1-1.49-.76l-11.3-17.79a10.74,10.74,0,0,0-18.65,0l-11.22,17.69a3.59,3.59,0,0,1-1.44.86H120.1c-25.19-111.82,4.2-212.86,4.5-213.85l5.45-18.27-25.9,14.41-19-28.83C116.74,63,145,58.82,157,58.54,163,87.15,185.65,95,198.95,95h0.76c13.29,0,36-7.89,41.9-36.49,12.05,0.28,40.33,4.5,71.89,33.84l-19,28.83Zm0,0"/><path class="cls-1" d="M244.84,141.91h-91a13,13,0,0,0-12.94,12.94v67a12.93,12.93,0,0,0,12.94,12.94h91a13,13,0,0,0,12.94-12.94v-67a13,13,0,0,0-12.94-12.94h0Zm-2.61,77.41H156.42V157.45h85.82v61.87Zm0,0"/><path class="cls-1" d="M169.78,178.7c10,0,10-15.51,0-15.51s-10,15.51,0,15.51h0Zm0,0"/><path class="cls-1" d="M227.58,178.7c10,0,10-15.51,0-15.51s-10,15.51,0,15.51h0Zm0,0"/></svg>