<svg id="Layer_1" data-name="Layer 1" xmlns="http://www.w3.org/2000/svg" viewBox="0 0 395.51 424.49"><defs><style>.cls-1{fill:#46bfbc;}.cls-2{fill:#25918b;}.cls-3{fill:#ffc515;}.cls-4{fill:#cbeaee;}.cls-5{fill:#77cdd2;}.cls-6{fill:#93d6dd;}.cls-7{fill:#fff;}.cls-8{fill:#010101;}</style></defs><title>Owl</title><path class="cls-1" d="M413.84,325.88c0,88.32-60,159.92-134,159.92s-134-71.6-134-159.92S185.46,100,279.83,100C373.91,100,413.84,237.56,413.84,325.88Z" transform="translate(-82.07 -66.54)"/><path class="cls-2" d="M376.64,436.46C589,339.53,400.36,251,400.36,251s11.94,32,10.44,94.06C409.83,385,376.64,436.46,376.64,436.46Z" transform="translate(-82.07 -66.54)"/><path class="cls-2" d="M183,436.46C-29.33,339.53,159.3,251,159.3,251s-11.94,32-10.44,94.06C149.83,385,183,436.46,183,436.46Z" transform="translate(-82.07 -66.54)"/><ellipse class="cls-3" cx="246.68" cy="402.54" rx="9.55" ry="15.43"/><ellipse class="cls-3" cx="284.55" cy="402.54" rx="9.55" ry="15.43"/><ellipse class="cls-3" cx="265.62" cy="402.54" rx="15.35" ry="21.95"/><ellipse class="cls-3" cx="110.96" cy="402.54" rx="9.55" ry="15.43"/><ellipse class="cls-3" cx="148.83" cy="402.54" rx="9.55" ry="15.43"/><ellipse class="cls-3" cx="129.89" cy="402.54" rx="15.35" ry="21.95"/><path class="cls-4" d="M279.83,388.12c-41.11-42.91-83.86-3.38,0,71.81C363.69,384.74,320.94,345.21,279.83,388.12Z" transform="translate(-82.07 -66.54)"/><path class="cls-5" d="M403.7,160.07c29.69-28.06,10.47-93.53,10.47-93.53S362.34,99.67,278.69,100C195,99.67,143.2,66.54,143.2,66.54S123.4,134,155.08,161.33a113.75,113.75,0,0,0-20.75,65.1c0,69.83,65.15,126.45,145.51,126.45s145.51-56.61,145.51-126.45C425.34,202.09,417.41,179.36,403.7,160.07Z" transform="translate(-82.07 -66.54)"/><path class="cls-3" d="M242.38,251.69l-0.67,1a8.41,8.41,0,0,0-.6,7.67L276,342c1.75,4.09,5.94,4.09,7.69,0l34.88-81.62a8.41,8.41,0,0,0-.6-7.67l-0.67-1C296.7,222.37,263,222.37,242.38,251.69Z" transform="translate(-82.07 -66.54)"/><circle class="cls-6" cx="127.48" cy="145.17" r="93.43"/><circle class="cls-6" cx="266.84" cy="145.17" r="93.43"/><circle class="cls-7" cx="133.64" cy="145.17" r="70.43"/><circle class="cls-8" cx="100.99" cy="137.2" r="31.46"/><circle class="cls-7" cx="261.87" cy="145.17" r="70.43"/><circle class="cls-8" cx="229.22" cy="137.2" r="31.46"/><circle class="cls-7" cx="81.26" cy="127.84" r="7.69"/><circle class="cls-7" cx="210.32" cy="127.84" r="7.69"/></svg>