<svg id="Eye" xmlns="http://www.w3.org/2000/svg" viewBox="0 0 400 400"><defs><style>.cls-1{fill:#fff;}</style></defs><title>Icons_white</title><path class="cls-1" d="M238,325.32H215.86V122.24h93.39L269.69,185a6.81,6.81,0,0,0,11.53,7.27l34.31-54.44,34.31,54.44A6.81,6.81,0,0,0,361.36,185L321.8,122.24h0.5a10.56,10.56,0,1,0,0-21.12H244.62a34.57,34.57,0,0,0-18.44-13.5,24,24,0,0,0-47.89,0,34.56,34.56,0,0,0-18.44,13.5H82.17a10.56,10.56,0,1,0,0,21.12h0.5L43.11,185a6.81,6.81,0,0,0,11.53,7.27l34.31-54.44,34.3,54.44A6.81,6.81,0,0,0,134.78,185L95.22,122.24h93.39V325.32H166.45a24,24,0,0,0-24,24H262a24,24,0,0,0-24-24h0Zm0,0"/><path class="cls-1" d="M139.07,202.7H38.81a3.63,3.63,0,0,0-3.63,3.63,53.76,53.76,0,1,0,107.52,0,3.63,3.63,0,0,0-3.63-3.63h0Zm0,0"/><path class="cls-1" d="M365.65,202.7H265.39a3.63,3.63,0,0,0-3.63,3.63,53.76,53.76,0,1,0,107.52,0,3.63,3.63,0,0,0-3.63-3.63h0Zm0,0"/></svg>